<svg xmlns="http://www.w3.org/2000/svg" viewBox="0 0 38.4 38.4">
  <g transform="translate(0 9.55)">
    <ellipse fill="#fff" cx="19.2" cy="9.65" rx="19.2" ry="9.65"/>
    <path d="M27.5,13.75c-.44.55-1.27,1-1.87.89-.56-.1-1.06-.4-1.47-.89-.27-.32-.49-.69-.65-1.12v-2.03s4.64,0,4.64,0v2.03c-.16.43-.37.8-.65,1.12Z"/>
    <g>
      <polygon points="23.02 9.61 22.25 9.61 21.51 9.02 21.5 5.33 22.32 4.64 22.94 4.64 23.76 5.33 23.76 9.02 23.02 9.61"/>
      <rect fill="#fefefe" x="22.25" y="5.2" width=".77" height="1.41" transform="translate(-.02 .06)"/>
    </g>
    <g>
      <polygon points="29.38 9.61 28.6 9.61 27.86 9.02 27.86 5.33 28.68 4.64 29.29 4.64 30.11 5.33 30.11 9.02 29.38 9.61"/>
      <rect fill="#fefefe" x="28.6" y="5.2" width=".77" height="1.41" transform="translate(-.02 .08)"/>
    </g>
  </g>
</svg>
